<?xml version="1.0" encoding="UTF-8" standalone="no"?>

<svg
   xmlns:dc="http://purl.org/dc/elements/1.1/"
   xmlns:cc="http://creativecommons.org/ns#"
   xmlns:rdf="http://www.w3.org/1999/02/22-rdf-syntax-ns#"
   xmlns:svg="http://www.w3.org/2000/svg"
   xmlns="http://www.w3.org/2000/svg"
   version="1.1"
   width="1052.3622"
   height="744.09448"
   id="svg2">
  <defs
     id="defs4" />
  <metadata
     id="metadata7">
    <rdf:RDF>
      <cc:Work
         rdf:about="">
        <dc:format>image/svg+xml</dc:format>
        <dc:type
           rdf:resource="http://purl.org/dc/dcmitype/StillImage" />
        <dc:title></dc:title>
      </cc:Work>
    </rdf:RDF>
  </metadata>
  <g
     transform="translate(0,-308.2677)"
     id="layer1">
    <g
       transform="translate(18.17363,18.173629)"
       id="g3033">
      <path
         d="M 64.214277,847.01266 C 43.525416,841.62339 31.94048,823.48 35.692848,802.34471 c 4.784929,-26.9512 36.609842,-58.20625 82.912652,-81.42798 22.04037,-11.05366 30.62214,-13.66702 62.43796,-19.01392 27.32731,-4.59258 25.14842,-3.81192 27.57295,-9.87888 4.02081,-10.06137 5.26588,-17.73358 5.80973,-35.7998 0.39426,-13.09704 0.0868,-21.59308 -1.19426,-33 -1.7129,-15.25223 -7.7118,-46.9878 -11.00581,-58.22324 l -1.71841,-5.86129 -4.11229,0.65759 c -2.26176,0.36167 -8.62777,2.61994 -14.14669,5.01839 -22.70658,9.86797 -30.03336,9.72982 -36.49731,-0.68821 -1.41633,-2.28272 -1.52879,-3.55514 -0.68029,-7.69721 0.97735,-4.77114 1.23095,-5.05727 6.57987,-7.42405 3.05983,-1.35392 10.94017,-3.88255 17.51186,-5.61919 13.37832,-3.53535 22.07637,-7.37001 24.25327,-10.69238 1.06991,-1.6329 1.4121,-4.95866 1.28895,-12.52771 -0.26833,-16.49316 -0.4846,-15.56603 4.75925,-20.40241 2.6125,-2.4095 5.50686,-4.38571 6.43191,-4.39157 3.03414,-0.0192 5.80541,5.62903 8.30369,16.92421 3.60787,16.31183 2.89675,15.64656 12.78913,11.96457 20.65739,-7.68879 25.93335,-8.92883 29.61225,-6.95994 2.33747,1.25098 7.11302,9.90668 7.11302,12.89239 0,5.48038 -6.95467,9.59705 -29.14075,17.24924 -6.79759,2.34456 -12.50202,4.36571 -12.67652,4.49145 -0.1745,0.12574 2.17399,11.18585 5.21886,24.57801 7.24771,31.87739 9.55619,46.22043 10.27639,63.8494 0.64799,15.86133 -0.49354,30.86211 -3.82178,50.22167 -1.16097,6.75308 -2.16606,12.94046 -2.23353,13.74974 -0.0889,1.06606 1.49891,1.68068 5.76365,2.23107 9.45621,1.22036 21.46908,5.34225 33.80596,11.59958 l 11.49391,5.82977 3.7596,-11.56592 c 6.02291,-18.52864 9.75522,-25.49936 18.02956,-33.67324 7.92158,-7.8254 17.30602,-13.86236 28.02465,-18.02809 5.67623,-2.20603 8.70199,-2.73413 16,-2.79254 10.70443,-0.0857 16.06825,1.91992 22.29534,8.3365 5.00718,5.15956 7.21294,9.77156 7.91178,16.54264 1.55508,15.06727 -10.56832,37.84689 -30.62769,57.54882 -12.16059,11.9439 -16.32071,13.98519 -30.87127,15.14793 -6.38979,0.51061 -11.70507,1.02371 -11.81173,1.14022 -0.87715,0.95821 4.48923,11.43644 7.76036,15.15263 7.61815,8.65468 19.89182,12.3415 31.9586,9.59988 8.86756,-2.01474 24.57568,-10.31932 34.00229,-17.97634 29.13475,-23.66549 60.7797,-67.33732 72.21996,-99.66766 l 2.51356,-7.10334 -13.1756,-0.57955 c -19.85332,-0.87327 -33.62041,-4.25065 -49.82418,-12.22299 -10.14591,-4.99184 -17.86056,-10.09284 -17.82918,-11.78882 0.0122,-0.66108 0.8497,-2.27815 1.86105,-3.59349 l 1.83882,-2.39153 5.38895,2.61626 c 16.4135,7.96853 53.31226,13.11285 68.88894,9.60431 11.17864,-2.51791 12.51993,-3.48945 16.27392,-11.78771 1.90334,-4.20739 5.15693,-12.8248 7.23019,-19.1498 4.737,-14.45136 5.76255,-16.51427 10.81284,-21.75 6.70996,-6.95635 9.68305,-5.19476 9.68305,5.73731 0,4.89356 -0.50434,6.85908 -2.51863,9.81574 -3.60006,5.28433 -8.33361,18.0884 -9.10103,24.61797 l -0.6557,5.57898 6.02721,0 c 8.55348,0 18.967,-2.17112 43.40218,-9.04895 29.01183,-8.16603 39.31392,-8.75342 46.41379,-2.64638 l 2.5997,2.23618 -1.68817,4.21914 c -1.98689,4.96573 1.03429,3.93154 -35.50803,12.155 -29.07166,6.54227 -56.96876,13.26014 -63.97132,15.40485 l -4.5,1.37824 -3.25339,9.70455 c -7.66215,22.85545 -11.15551,51.58202 -7.85551,64.59737 1.94452,7.66925 5.78528,13.61407 10.62274,16.44214 2.74116,1.60254 5.08894,2.01142 10.98616,1.91334 8.56168,-0.1424 13.70134,-1.77426 23.04085,-7.31551 l 6.54085,-3.88078 1.72655,-9.00663 c 2.33171,-12.16345 8.96597,-32.61307 14.25688,-43.94578 11.6865,-25.03151 25.60437,-37.77045 42.59404,-38.98606 8.62632,-0.61721 14.37002,1.40887 19.22345,6.78103 4.29875,4.75821 5.96165,10.31758 5.83224,19.49825 -0.285,20.21862 -14.15651,39.74859 -44.71486,62.95491 -18.31191,13.90625 -19.52619,15.1294 -18.80184,18.93911 1.46712,7.71631 5.95027,13.25818 13.3143,16.45856 31.55363,13.71308 51.48668,-18.61717 81.35012,-131.94515 4.11715,-15.62409 10.70706,-40.78243 14.64424,-55.90743 12.18472,-46.80859 16.54832,-59.87749 21.9772,-65.82136 3.39327,-3.71515 4.39975,-3.85174 8.76598,-1.1896 2.93555,1.78984 3.25,2.44312 3.25,6.75194 0,2.91896 -2.68211,14.08273 -6.91075,28.7647 -4.88369,16.95629 -7.65518,28.83411 -9.44867,40.49432 -9.9467,64.66751 -15.22911,162.53664 -10.29811,190.79672 4.57338,26.21053 13.1419,39.20328 25.85396,39.20328 13.7986,0 27.17055,-9.46841 41.33462,-29.2682 l 6.54508,-9.14931 -3.73879,-1.91811 c -2.05633,-1.05496 -8.26974,-3.59897 -13.80758,-5.65334 -11.80437,-4.37907 -16.68744,-6.76353 -25.52976,-12.46644 -16.20052,-10.44864 -27,-28.55054 -27,-45.25692 0,-5.46511 -0.24742,-6.40671 -1.55194,-5.90612 -0.88992,0.34149 -1.29132,0.17385 -0.94098,-0.39301 0.33602,-0.5437 1.19105,-0.98855 1.90006,-0.98855 0.70901,0 2.14495,-1.91247 3.19099,-4.24993 2.64604,-5.91284 13.68451,-16.69393 20.90187,-20.4145 8.48597,-4.37454 15.1167,-5.68044 25.96212,-5.11316 16.0914,0.84169 26.25909,7.47485 33.43524,21.81236 4.94965,9.88909 7.53676,20.98883 10.02403,43.00703 1.08988,9.648 2.2898,18.34497 2.66649,19.32661 2.063,5.37609 28.71269,8.50296 47.1374,5.53073 8.86687,-1.43038 8.54999,-0.90416 10.17633,-16.89914 2.52704,-24.85336 6.06711,-38.94744 13.61639,-54.21103 6.74533,-13.63811 13.91244,-23.28664 27.17562,-36.58447 15.87363,-15.9151 19.34099,-17.7045 34.30638,-17.7045 9.54265,0 10.97953,0.2527 15.75937,2.77159 10.06556,5.30438 13.15908,12.29649 18.24063,41.22841 5.68235,32.35254 8.38975,37.39148 27.34728,50.89793 4.31601,3.07498 13.99101,8.54853 21.5,12.16345 52.63164,25.33753 58.48284,29.43862 42.00074,29.43862 -15.20247,0 -36.0087,-6.07973 -57.34802,-16.75752 -10.85099,-5.42963 -29.73041,-17.00932 -38.5,-23.61398 l -4.5,-3.38909 -15.40249,12.37545 c -25.1796,20.23108 -37.15326,27.79969 -48.66891,30.76387 -16.03724,4.12807 -61.60857,8.13649 -83.4286,7.33833 l -15.5,-0.56698 -5,6.67195 c -7.63288,10.18524 -27.0836,29.20297 -35.69633,34.90172 -11.70901,7.74744 -17.45642,9.69036 -28.80367,9.73711 -8.09534,0.0333 -10.23929,-0.32236 -14.5,-2.40574 -12.00877,-5.87199 -21.6857,-20.26304 -26.95435,-40.08516 -4.32906,-16.28711 -5.67897,-28.6448 -6.27779,-57.46996 -0.3085,-14.85 -0.68237,-26.55 -0.83083,-26 -1.98116,7.33961 -8.36701,25.4301 -11.07297,31.36861 -9.68193,21.248 -24.04825,36.83477 -39.08067,42.40063 -8.07481,2.98976 -23.26616,2.92648 -31.70266,-0.13205 -11.38531,-4.12758 -20.36365,-11.66775 -26.35951,-22.13719 -1.41743,-2.475 -2.69119,-4.65663 -2.83058,-4.84806 -0.13939,-0.19144 -4.8968,1.24023 -10.57204,3.18147 -19.35998,6.62219 -28.72058,7.13971 -39.57157,2.18779 -13.42969,-6.12873 -19.9636,-16.98935 -23.32532,-38.7712 -0.65786,-4.2625 -1.47187,-7.73145 -1.80891,-7.70877 -0.33704,0.0227 -4.6628,5.92631 -9.6128,13.11918 -18.52196,26.91438 -38.70819,48.87271 -54.5,59.28442 -22.33198,14.72373 -44.77771,17.30669 -64.82867,7.46022 -12.73997,-6.25625 -21.74773,-18.99091 -28.22647,-39.90505 -1.97589,-6.37839 -4.07547,-11.20137 -5.34877,-12.28676 -6.37246,-5.43205 -37.29391,-18.35131 -48.28461,-20.17374 -4.08925,-0.67806 -4.25027,-0.59671 -6.79349,3.43201 -1.43273,2.26959 -7.07563,12.67336 -12.53978,23.11949 -12.35684,23.62332 -21.74345,37.51587 -33.97821,50.2891 -20.66614,21.5757 -45.43234,36.48389 -72.68414,43.75275 -9.853417,2.6282 -32.272106,3.48272 -39.815863,1.51763 z m 30.520099,-15.68574 c 10.041774,-2.73235 25.395874,-10.50003 36.979904,-18.70823 12.49266,-8.85204 36.57019,-32.93205 45.02197,-45.0266 11.13221,-15.93025 17.58541,-29.50737 19.44927,-40.92001 l 0.68431,-4.19009 -3.82777,-0.80991 c -7.2283,-1.5294 -24.35426,-0.69504 -33.3619,1.62537 -29.56911,7.61713 -60.462923,25.09626 -83.57596,47.2857 -18.429651,17.69321 -26.421057,33.13862 -23.952898,46.29504 0.9718,5.18013 8.503874,12.53322 15.062975,14.70502 7.005417,2.31958 18.444899,2.21305 27.520099,-0.25629 z M 732.53884,756.86218 c 0.6996,-12.93351 -3.29144,-33.54928 -8.48681,-43.83864 -6.76911,-13.40613 -14.97552,-18.15074 -26.35271,-15.23604 -15.34028,3.93 -24.63911,16.08233 -21.8895,28.60666 3.12525,14.23541 19.33319,26.72034 44.90446,34.58977 10.86223,3.34279 11.43151,3.14435 11.82456,-4.12175 z m 111.67544,1.34718 c 20.18362,-6.6528 35.8358,-18.98571 48.03333,-37.84718 7.91396,-12.23763 8.46667,-13.86384 8.46667,-24.91094 0,-20.73516 -5.76257,-33.06313 -16.85062,-36.04884 -6.72293,-1.81029 -13.44982,1.3548 -21.92493,10.31597 -11.10211,11.73885 -22.90393,33.60669 -30.05754,55.69425 -6.10983,18.86479 -7.27806,29.13632 -4.00862,35.24533 1.17537,2.1962 3.14582,1.90095 16.34171,-2.44859 z m -517.5,-24.10844 c 7.70923,-3.65737 21.54558,-17.05832 26.8404,-25.99579 7.29004,-12.30531 10.13302,-24.18706 7.12996,-29.79834 -3.13012,-5.84868 -15.29917,-6.54647 -25.36352,-1.45437 -15.79708,7.99259 -32.64193,33.71209 -32.99359,50.37616 -0.0989,4.6884 0.21812,5.61705 2.50955,7.35029 5.77134,4.36543 11.95267,4.23038 21.8772,-0.47795 z m 215.92755,-11.70178 c 8.79319,-4.48595 23.58392,-18.48402 30.91799,-29.26103 5.48448,-8.05916 9.15281,-16.83198 9.15367,-21.89107 10e-4,-5.96336 -2.85684,-9.88486 -7.20376,-9.88486 -10.89216,0 -30.4452,26.20069 -36.285,48.62119 -1.46863,5.63847 -2.05863,14.37881 -0.97061,14.37881 0.29691,0 2.27138,-0.88337 4.38771,-1.96304 z"
         id="path3047"
         style="fill:#cecece" />
      <path
         d="M 63.714277,846.61597 C 47.355384,842.16869 38.322996,832.16842 35.621896,815.51327 33.520868,802.5582 39.005064,787.021 51.049402,771.8058 71.394326,746.10477 118.73726,716.27447 153.21428,707.43276 c 4.4,-1.12839 17.44003,-3.6331 28.97784,-5.56602 11.53781,-1.93293 21.72624,-3.75194 22.64095,-4.04226 0.91472,-0.29032 2.66787,-2.86346 3.8959,-5.71809 9.8959,-23.00364 7.51877,-73.85107 -5.85519,-125.24421 l -1.8216,-7 -3.91895,0.083 c -2.32133,0.0492 -8.95245,2.20748 -16.26609,5.29431 -20.19865,8.52511 -26.62906,8.87013 -32.75595,1.7575 -3.34897,-3.88777 -3.52315,-4.4321 -2.91506,-9.10984 0.3557,-2.73625 1.08548,-5.50366 1.62173,-6.1498 1.49323,-1.79923 10.0665,-4.92601 24.39642,-8.89766 13.7189,-3.80231 20.6601,-7.09299 22.69434,-10.75891 0.83995,-1.51369 1.1447,-6.28357 0.95913,-15.01206 l -0.27199,-12.79343 3.30926,-3.09472 c 4.71257,-4.40705 7.31293,-5.94611 8.97127,-5.30974 2.54786,0.9777 4.86128,6.19168 6.90792,15.56904 1.9176,8.78614 4.29754,15.92228 5.31016,15.92228 0.26518,0 5.95053,-2.04558 12.63411,-4.54572 20.19928,-7.55602 24.58239,-7.72274 28.44686,-1.08207 3.54012,6.08331 4.06027,9.18319 2.05457,12.24428 -2.08528,3.18253 -13.8614,8.81333 -29.26563,13.99347 -6.1875,2.08073 -11.25,4.15873 -11.25,4.61776 0,0.45903 2.23081,10.60808 4.95737,22.55344 9.86273,43.20989 12.24664,63.53617 10.26309,87.50803 -0.99659,12.0441 -3.60778,30.51927 -5.76838,40.81343 -0.52985,2.52448 -0.36735,2.62132 5.41204,3.22539 8.7404,0.91355 23.33306,5.904 35.32404,12.08024 l 10.53062,5.42404 5.21435,-15.1139 c 2.86789,-8.31265 6.40863,-17.16241 7.86831,-19.66615 3.90451,-6.69727 14.84362,-16.89673 23.8247,-22.21379 11.56938,-6.8494 19.10925,-9.20766 29.37386,-9.18735 10.00314,0.0198 14.04629,1.50684 20.65178,7.59557 11.34794,10.46016 12.10407,23.36476 2.4882,42.46468 -9.98596,19.83503 -31.09266,42.11834 -43.33918,45.75517 -3.02672,0.89884 -9.02034,1.53348 -14.4823,1.53348 -6.78855,0 -9.31829,0.33937 -9.31771,1.25 4.3e-4,0.6875 1.28288,3.96006 2.84988,7.27236 10.31153,21.79635 35.21085,24.2891 62.65287,6.27238 9.23568,-6.06357 33.52069,-29.75394 43.86891,-42.79474 15.81076,-19.92467 32.00067,-47.75948 37.51595,-64.5 l 1.97675,-6 -12.18258,-0.65847 c -20.31977,-1.09828 -35.93453,-4.91454 -50.85744,-12.42959 -7.72177,-3.88863 -17.82513,-10.31109 -17.82513,-11.33101 0,-0.50107 1.8181,-3.50569 3.56897,-5.89816 0.12769,-0.17448 2.52182,0.84302 5.32029,2.26112 6.88465,3.48871 31.15715,9.33051 43.70981,10.51988 13.69622,1.29773 31.44566,-0.96038 37.02195,-4.70998 2.13663,-1.4367 7.19104,-12.84689 11.85706,-26.76694 5.19117,-15.48673 6.95713,-18.90576 12.09506,-23.41692 4.04752,-3.55378 5.94179,-3.84481 7.39168,-1.13567 1.54674,2.89012 1.31451,14.58903 -0.31647,15.94262 -1.87082,1.55264 -7.57135,14.15509 -9.24311,20.43421 -0.75983,2.8539 -1.38684,6.85521 -1.39337,8.8918 l -0.0119,3.70288 5.25,-0.48968 c 12.9003,-1.20325 21.61836,-3.01666 41.13747,-8.55684 31.9498,-9.06844 40.6709,-9.79552 47.64621,-3.97228 3.31564,2.76802 3.35161,2.88368 2.14718,6.90372 -0.68026,2.27051 -1.99331,4.30873 -2.95291,4.58374 -0.95037,0.27237 -8.70295,2.07404 -17.22795,4.00372 -39.37704,8.9132 -64.3133,14.79864 -73.5,17.34742 l -10,2.77443 -3.16741,9.5 c -1.74208,5.225 -4.41323,14.9 -5.93588,21.5 -2.38389,10.33303 -2.77738,14.22263 -2.83259,28 -0.0635,15.84535 -0.0351,16.05757 2.93588,21.95656 1.65,3.27611 4.58564,7.20986 6.52365,8.74167 7.55454,5.97116 21.66679,4.42626 35.95645,-3.93621 l 6.4801,-3.79223 2.27362,-10.48489 c 8.762,-40.40639 24.97895,-69.26179 44.26618,-78.76438 4.69357,-2.31247 6.77005,-2.71057 14.16192,-2.71515 8.00398,-0.005 8.99144,0.22297 13,3.00082 9.76395,6.7662 12.63933,21.29641 7.33893,37.08602 -5.63666,16.79131 -17.73061,30.3016 -47.15257,52.6747 -5.41656,4.11886 -10.9037,8.63099 -12.19366,10.02695 -2.31842,2.50892 -2.32695,2.60152 -0.74215,8.05306 1.65198,5.68259 5.53291,10.53924 10.45642,13.08528 4.27209,2.20919 14.63745,3.86892 19.5559,3.13135 12.93714,-1.94005 25.17901,-17.7381 36.9236,-47.64969 10.54476,-26.85583 16.67026,-46.76345 29.66616,-96.41386 24.22178,-92.53849 25.27087,-96.2128 30.30821,-106.15135 3.57622,-7.0558 6.83802,-9.53717 10.74597,-8.17485 6.70317,2.33674 6.51843,6.22683 -1.6358,34.4449 -7.40358,25.62043 -9.24236,34.65109 -12.82659,62.99434 -7.05749,55.80896 -11.35063,135.02149 -8.69334,160.40011 2.30815,22.04409 8.42401,38.89696 16.48253,45.41926 3.49413,2.82803 4.38974,3.06759 11.46832,3.06759 6.70324,0 8.55054,-0.42945 14.54818,-3.38208 8.3998,-4.13521 17.77135,-13.14241 26.40585,-25.37924 3.40016,-4.81873 6.18212,-8.89849 6.18212,-9.06613 0,-0.56003 -11.38403,-5.58167 -22,-9.7045 -18.48206,-7.17771 -31.14168,-16.40663 -38.95429,-28.3979 -5.46242,-8.38404 -8.22456,-16.44627 -8.80844,-25.71042 -0.44095,-6.99638 -0.23948,-8.08861 2.3906,-12.96006 1.5797,-2.92587 5.34716,-7.83978 8.37216,-10.91979 9.84107,-10.02002 21.45484,-14.97988 35.07617,-14.97988 20.14589,0 33.63997,10.31643 40.29705,30.80772 3.27676,10.08626 4.22344,15.23993 6.64541,36.17719 1.15756,10.00674 2.5557,18.01799 3.26904,18.73133 1.82561,1.82561 15.00052,4.94814 24.21233,5.73846 9.56511,0.82063 28.38063,-1.62678 30.07674,-3.91221 0.59221,-0.79797 1.87325,-8.78398 2.84675,-17.74668 4.30012,-39.58958 15.24763,-62.97928 41.6282,-88.93997 13.12844,-12.9195 18.27655,-15.79329 29.69391,-16.57586 14.30591,-0.98055 24.5772,3.84403 29.37439,13.79759 3.01643,6.25869 4.85199,13.66702 8.40496,33.92243 2.67592,15.25538 4.50917,22.03121 7.65545,28.29506 5.3056,10.5628 19.06466,20.96527 42.8196,32.37357 9.625,4.6224 19.3,9.32635 21.5,10.45323 16.30492,8.35169 25.11642,13.30201 25.80412,14.49683 1.7558,3.0506 -0.3718,3.67752 -10.2772,3.02838 -24.41858,-1.60025 -51.76341,-12.50946 -81.40045,-32.47471 -7.08044,-4.7698 -13.65064,-9.24506 -14.60044,-9.94503 -1.49778,-1.10381 -2.68166,-0.47302 -8.92263,4.75412 -17.17927,14.38854 -37.67333,29.21586 -46.83208,33.88271 -5.87562,2.99393 -14.09448,4.73981 -33.27697,7.06881 -26.55132,3.22367 -45.35056,4.35489 -60.99435,3.67026 l -14.5,-0.63458 -6,7.72838 c -14.29443,18.41214 -33.82675,35.05905 -48.5,41.33535 -8.31764,3.55776 -21.38427,3.45919 -29.23579,-0.22055 -22.64879,-10.61472 -33.65326,-44.88491 -33.8166,-105.31183 l -0.0541,-20 -2.38703,8.06844 c -14.44631,48.83024 -40.46875,74.41544 -70.75266,69.56384 -14.78408,-2.36847 -28.78353,-12.01735 -35.19045,-24.25441 l -2.90345,-5.54551 -10.57998,3.72363 c -11.58352,4.07681 -24.19905,6.51731 -29.31034,5.67014 -6.61686,-1.09672 -14.80021,-4.94809 -19.50882,-9.18154 -7.88319,-7.08767 -11.312,-15.09033 -14.26533,-33.29459 -0.64691,-3.9875 -1.50438,-7.25 -1.9055,-7.25 -0.40112,0 -3.39287,3.9375 -6.64833,8.75 -29.46632,43.55965 -56.04115,67.9546 -81.5335,74.84548 -13.58366,3.67181 -32.19317,1.42333 -43.61501,-5.26977 -10.77274,-6.31273 -20.44438,-21.29004 -25.71757,-39.82571 -1.87714,-6.59831 -3.2585,-9.56681 -5.17644,-11.12404 -7.41871,-6.02346 -37.84513,-18.53915 -48.53704,-19.96536 l -4.3621,-0.58186 -7.65909,13.83563 c -4.2125,7.6096 -9.51256,17.56312 -11.77791,22.11895 -20.93362,42.09937 -57.02719,72.54198 -100.563,84.81843 -12.260975,3.45741 -31.972713,4.2421 -41.500003,1.65204 z m 30.5,-14.87507 c 14.259963,-3.45461 38.504553,-18.04397 54.978733,-33.08386 24.43798,-22.31035 44.15645,-52.34228 47.05408,-71.66506 l 0.6668,-4.44657 -5.84981,-1.22105 c -30.1282,-6.2888 -85.61106,18.52038 -118.864248,53.15019 -14.501396,15.10173 -20.566359,25.97141 -20.618884,36.95334 -0.03108,6.49754 1.482554,10.01451 6.29801,14.63361 8.02002,7.693 20.178773,9.59347 36.335319,5.6794 z M 732.71428,754.5384 c 0,-17.21943 -5.1553,-37.72778 -11.97578,-47.64102 -7.15685,-10.40212 -17.56966,-12.94511 -29.35296,-7.16851 -14.95927,7.33357 -19.89328,19.48353 -13.34627,32.86512 5.56213,11.36859 21.86329,22.3906 41.67501,28.1785 13.50176,3.94448 13,4.1851 13,-6.23409 z m 111.79479,3.75517 c 22.85354,-7.70646 40.59218,-23.16459 52.50139,-45.75173 l 4.65304,-8.825 -0.91359,-12.42733 c -1.14277,-15.54474 -2.95418,-20.94111 -9.08844,-27.07537 -7.286,-7.286 -13.98602,-7.45747 -23.60837,-0.60419 -14.97413,10.66496 -34.60041,48.09587 -40.8862,77.97749 -1.8374,8.73467 -1.83314,12.92826 0.0176,17.35775 1.40672,3.36677 1.63353,3.48912 5.25,2.83213 2.07887,-0.37766 7.51242,-1.94534 12.07455,-3.48375 z m -517.93118,-23.7448 c 10.5135,-5.14026 24.26696,-20.12798 30.98626,-33.76706 6.41555,-13.0225 5.74953,-23.71929 -1.65217,-26.53507 -7.52086,-2.86111 -18.19085,-0.19806 -27.90591,6.96483 -12.56771,9.26616 -26.29179,33.84239 -26.29179,47.08173 0,9.43419 12.12356,12.48442 24.86361,6.25557 z m 224.87459,-17.83666 c 22.31838,-17.0935 36.73259,-43.12523 29.18922,-52.71507 -10.32187,-13.12214 -39.34066,24.39681 -43.44507,56.17098 l -0.68538,5.30583 3.85151,-1.60902 c 2.11834,-0.88497 7.10871,-4.10369 11.08972,-7.15272 z"
         id="path3045"
         style="fill:#afafaf" />
      <path
         d="M 64.965432,846.84572 C 47.152949,842.97625 36.794994,830.6044 35.895904,812.12421 c -0.499305,-10.2629 0.653674,-15.60333 5.418446,-25.09746 10.639848,-21.20061 37.454019,-44.77831 71.71888,-63.0624 23.63988,-12.61449 35.82814,-16.44834 70.68105,-22.23293 11.825,-1.96261 22.01739,-4.08607 22.64975,-4.71881 1.84921,-1.85031 5.99533,-14.52062 7.41192,-22.65043 3.8219,-21.93382 -0.45839,-67.08464 -9.81179,-103.5 l -2.82538,-11 -4.46225,0.15908 c -2.8646,0.10212 -8.65048,1.96021 -16.16003,5.18967 -19.28001,8.29129 -26.80539,8.61028 -32.75812,1.38858 -3.3027,-4.00674 -3.59359,-5.71828 -1.96729,-11.57507 1.31888,-4.74968 4.04658,-6.08453 22.96632,-11.239 14.33882,-3.90645 21.22588,-6.84208 24.45687,-10.42483 1.79741,-1.99309 1.97134,-3.39294 1.71702,-13.81969 -0.37391,-15.33006 -0.0758,-16.378 5.90867,-20.77101 l 4.98085,-3.65627 2.41771,2.27132 c 2.77114,2.60336 3.76752,5.32137 6.02669,16.44019 1.44042,7.08917 3.77714,13.53703 4.90586,13.53703 0.22299,0 5.93147,-2.06714 12.6855,-4.59365 12.20382,-4.56512 19.30308,-6.25077 23.60619,-5.60505 2.87964,0.43212 7.41596,8.01684 7.54637,12.61754 0.0531,1.87256 -0.55405,4.19663 -1.34917,5.16458 -2.00959,2.44641 -13.25682,7.50233 -27.72378,12.46257 -6.72205,2.30477 -12.22213,4.69978 -12.22239,5.32225 -2.6e-4,0.62247 2.00771,9.90676 4.46216,20.63176 12.69256,55.46163 13.96388,76.71686 7.03499,117.61825 -1.37317,8.10586 -2.49667,14.88278 -2.49667,15.05984 0,0.17705 1.2923,0.32191 2.87178,0.32191 8.83809,0 28.17878,7.1131 48.27868,17.75589 0.35776,0.18943 2.55813,-5.41565 4.88972,-12.45574 4.87718,-14.72631 7.72532,-20.85727 12.8239,-27.60499 11.34855,-15.01926 38.90122,-28.58737 53.35779,-26.27567 7.17469,1.14728 13.61363,4.60368 18.31274,9.83023 9.19875,10.23122 9.48029,21.84848 0.95511,39.41011 -5.74199,11.82832 -14.03887,22.76067 -25.82536,34.02862 -12.54918,11.9971 -15.94998,13.57895 -30.38069,14.13131 -7.43118,0.28445 -11.2834,0.81573 -11.28288,1.55608 0.002,2.90328 6.1764,13.56465 10.06382,17.37736 7.53214,7.38738 19.48396,10.06732 31.74257,7.11759 7.83646,-1.88565 20.24577,-8.20285 28.69282,-14.60664 10.06961,-7.63387 30.83338,-28.81069 40.4593,-41.26415 15.82673,-20.4757 29.11875,-43.30013 35.41305,-60.8096 1.44521,-4.02028 2.62765,-7.50778 2.62765,-7.75 0,-0.24222 -3.27431,-0.4404 -7.27623,-0.4404 -21.91059,0 -44.18198,-5.72813 -61.99598,-15.94518 -10.9208,-6.26351 -12.17441,-7.37524 -10.88002,-9.64869 2.70705,-4.75463 2.58514,-4.72719 8.24928,-1.85695 7.64345,3.87323 29.49819,9.12341 42.9443,10.31654 12.90968,1.14553 23.56161,0.34295 32.30303,-2.4339 5.71095,-1.81418 5.92348,-2.01364 9.30935,-8.73708 1.90573,-3.78428 5.51431,-13.02621 8.01907,-20.53763 5.08361,-15.24502 6.83215,-18.63725 11.90034,-23.08718 4.26199,-3.74208 6.17162,-3.87145 7.45161,-0.50483 2.19627,5.77661 1.18497,11.81251 -3.44678,20.57201 -4.63817,8.77166 -7.25822,16.64767 -7.77196,23.36289 l -0.30601,4 7.5,-0.33756 c 9.52687,-0.42878 20.99682,-2.87396 43.00969,-9.16888 28.14507,-8.04852 37.68496,-8.60093 44.67657,-2.58701 2.63205,2.264 2.67554,2.46714 1.37322,6.41324 l -1.34493,4.07518 -13.10728,3.03431 c -7.209,1.66887 -26.86619,6.19159 -43.68264,10.05048 -16.81646,3.85889 -33.86353,8.0047 -37.88238,9.2129 -8.4188,2.53098 -8.29148,2.34518 -13.23002,19.30734 -7.2582,24.9294 -8.90026,51.76265 -3.87007,63.24164 3.09528,7.06349 8.58604,11.9151 14.48608,12.79987 7.07171,1.06047 14.68181,-0.32759 22.5996,-4.12209 10.54735,-5.05468 12.63723,-6.79239 13.41759,-11.15655 4.75913,-26.61545 15.76466,-54.12436 28.13485,-70.32456 15.39017,-20.15521 40.90309,-23.92051 50.91485,-7.51424 2.85471,4.67801 3.00183,5.45258 2.94402,15.5 -0.0492,8.54843 -0.49815,11.68855 -2.34193,16.3796 -5.52164,14.04851 -19.84786,30.18045 -41.67571,46.92867 -20.52109,15.74556 -19.73782,14.93598 -18.95179,19.58846 1.80592,10.68915 10.84902,17.73543 24.19763,18.85453 5.65143,0.4738 7.80254,0.2104 11.44675,-1.4016 12.84855,-5.68353 22.19066,-19.99662 35.22333,-53.96583 10.12346,-26.38645 14.00161,-39.81824 37.76806,-130.8079 13.96038,-53.44722 17.599,-64.3205 23.52539,-70.30101 l 3.27115,-3.30101 3.29898,1.69054 c 1.81445,0.9298 3.6296,2.19026 4.03368,2.80101 1.70109,2.57118 0.39064,9.42333 -6.14211,32.11615 -3.79909,13.19688 -7.85073,29.68014 -9.00365,36.62948 -4.71843,28.4406 -9.27934,73.88876 -11.07559,110.36484 -0.56878,11.55 -1.27729,22.4755 -1.57447,24.27889 -1.21682,7.38395 -0.49939,45.91796 1.0614,57.00946 3.1142,22.1306 9.87949,37.25395 18.70731,41.819 8.96341,4.63515 24.56814,-0.61005 37.13049,-12.48063 3.92192,-3.70596 19.20434,-23.9497 18.53291,-24.54949 -1.20509,-1.07649 -10.27735,-5.17939 -17.80223,-8.05099 -24.92433,-9.51149 -38.07108,-19.68294 -46.16526,-35.71743 -3.67541,-7.28094 -5.90349,-15.72377 -5.90349,-22.36997 0,-12.14163 13.99207,-27.98575 29.71661,-33.65003 12.9432,-4.66238 29.91876,-3.08067 39.78339,3.70686 13.76772,9.47312 19.998,25.77295 23.5088,61.50433 1.78569,18.17393 1.89788,18.42968 8.95368,20.40944 13.26161,3.72101 26.10393,4.15502 42.2161,1.42669 7.83308,-1.3264 7.05521,0.32875 9.32238,-19.83613 3.60426,-32.0575 10.31816,-50.69319 25.78113,-71.56045 6.10727,-8.24174 21.45155,-23.78417 27.77853,-28.13725 15.42122,-10.61008 38.73275,-7.3368 46.21472,6.48923 3.4852,6.44035 5.16286,12.79942 8.71897,33.04869 4.59609,26.17121 7.2445,32.5108 17.63294,42.20855 8.27322,7.72317 15.7622,12.10101 48.67256,28.45263 27.75221,13.78876 31.76161,16.06704 31.50001,17.89921 -0.4089,2.86327 -6.1255,3.20334 -19.15577,1.13954 -23.56016,-3.73156 -54.38839,-17.87427 -79.4218,-36.43542 -4.5284,-3.3576 -8.54381,-6.10473 -8.92314,-6.10473 -0.37932,0 -1.8393,1.08931 -3.24439,2.4207 -6.50617,6.16485 -27.70067,22.52238 -38.44844,29.6738 -13.35096,8.88355 -18.83154,10.96596 -35.29394,13.41039 -23.46813,3.48469 -40.33752,4.79437 -63.03183,4.89359 l -23.2195,0.10152 -6.59776,8.24607 c -23.33077,29.15945 -46.55242,44.48384 -65.1464,42.99129 -22.19899,-1.78192 -36.28391,-22.55121 -42.54602,-62.73736 -1.73772,-11.15154 -2.11822,-18.29104 -2.18725,-41.04099 l -0.0836,-27.541 -2.70324,9.64725 c -11.16167,39.83346 -30.82411,65.24474 -54.57255,70.52827 -19.75973,4.39612 -42.43264,-6.09011 -51.78341,-23.94984 l -2.83494,-5.41466 -9.22462,3.33918 c -12.09494,4.37819 -24.37962,6.83552 -30.26476,6.05393 -7.08139,-0.94047 -18.33647,-6.9291 -23.01781,-12.24739 -4.98528,-5.66357 -7.73938,-12.77978 -10.2075,-26.37475 -1.04843,-5.775 -2.04088,-10.9141 -2.20544,-11.42021 -0.16456,-0.50612 -3.40158,3.54388 -7.19338,9 -27.43643,39.47904 -46.08639,58.58012 -68.04217,69.68805 -15.22106,7.70068 -32.25983,9.27964 -46.81647,4.33841 -18.05487,-6.12868 -27.69941,-17.86564 -35.7279,-43.4792 l -3.25137,-10.37294 -5.57722,-3.57685 C 264.24741,735.7772 239.1374,725.83742 229.69581,724.68835 l -4.51845,-0.5499 -7.1394,12.86186 c -3.92667,7.07403 -9.17548,16.95486 -11.66401,21.9574 -19.83446,39.872 -53.82522,70.30018 -93.17543,83.40971 -17.501431,5.83061 -34.670017,7.42466 -48.233108,4.4783 z m 29.464451,-15.04637 c 7.205277,-1.83271 24.203367,-9.96318 32.518317,-15.55404 31.46278,-21.15521 59.3328,-55.027 67.66657,-82.23847 2.55755,-8.35092 2.63987,-11.21093 0.34951,-12.14237 -3.53805,-1.43884 -19.38792,-1.75464 -26.9931,-0.53782 -43.14905,6.9038 -102.478442,47.84711 -114.361756,78.92122 -2.571662,6.72473 -2.855633,15.40098 -0.64197,19.61431 1.811214,3.44734 7.094397,8.65007 10.746823,10.58318 7.339658,3.88463 18.783196,4.38908 30.715606,1.35399 z M 732.41356,749.9689 c -1.23026,-28.12057 -10.45062,-48.75547 -23.53759,-52.67642 -12.04528,-3.60886 -29.84106,6.73782 -33.22902,19.31974 -3.53679,13.13464 7.21055,27.87674 27.56733,37.81405 9.63366,4.70274 27.05657,10.23092 28.88635,9.16546 0.49057,-0.28566 0.6303,-6.36862 0.31293,-13.62283 z m 106.32082,10.32891 c 4.11394,-1.13541 11.5299,-3.99209 16.4799,-6.34818 18.59085,-8.84883 30.84611,-21.088 42.9621,-42.90569 l 3.78636,-6.81825 -0.72226,-11.1438 c -0.93529,-14.43063 -3.43809,-22.58394 -8.67731,-28.26782 -7.01911,-7.61483 -14.16112,-8.18141 -23.47044,-1.86194 -15.50934,10.52824 -34.95408,46.64172 -41.88327,77.78714 -2.51788,11.31734 -1.13698,21.62291 2.89736,21.62291 0.63121,0 4.51361,-0.92897 8.62756,-2.06437 z M 326.58393,734.72513 c 3.03493,-1.48486 9.00241,-6.04135 13.34188,-10.18725 13.34287,-12.74771 21.96458,-28.07739 22.16652,-39.41284 0.0879,-4.93419 -0.26536,-6.10471 -2.52411,-8.36346 -7.13058,-7.13058 -22.28606,-4.0091 -34.69256,7.14542 -12.90267,11.6006 -24.20247,34.38409 -23.00374,46.38181 0.28955,2.89806 1.0365,3.79779 4.84236,5.83286 5.60076,2.99484 11.78197,2.56039 19.86965,-1.39654 z m 219.06092,-13.66149 c 7.02169,-4.13947 22.59226,-19.43456 27.98714,-27.49198 6.53409,-9.75886 9.06135,-15.92762 9.07252,-22.14503 0.0119,-6.60498 -2.55538,-10.06445 -7.46876,-10.06445 -13.31347,0 -35.3761,33.53603 -38.10015,57.91366 -0.82749,7.4053 -0.96911,7.37554 8.50925,1.7878 z"
         id="path3043"
         style="fill:#909090" />
      <path
         d="m 65.870025,846.82626 c -12.959702,-2.8127 -21.244191,-8.83573 -26.311662,-19.12922 -4.117635,-8.36411 -5.085814,-20.55164 -2.373738,-29.88086 7.71327,-26.53271 38.282074,-55.0455 82.529655,-76.97882 21.88164,-10.84663 30.23665,-13.32375 64,-18.97491 11.825,-1.97922 22.08022,-4.17276 22.78938,-4.87452 1.95869,-1.93828 5.9687,-14.25565 7.3736,-22.6492 1.57331,-9.39972 1.53799,-37.29855 -0.0639,-50.47655 -2.39458,-19.69904 -7.41707,-45.74643 -11.59291,-60.12259 l -1.48795,-5.1226 -4.57902,0.85545 c -2.51846,0.4705 -9.16006,2.82689 -14.7591,5.23642 -13.99519,6.02277 -16.146,6.65332 -22.69446,6.65332 -6.51711,0 -9.4385,-1.71195 -12.44354,-7.29197 -1.66253,-3.08713 -1.72776,-3.97328 -0.59124,-8.03251 1.58346,-5.65556 3.97001,-6.91598 23.05713,-12.17726 14.38627,-3.96551 21.26582,-6.91719 24.49201,-10.50832 1.80487,-2.00904 1.97262,-3.40683 1.71935,-14.32699 -0.16582,-7.14977 0.16402,-13.13634 0.80617,-14.63185 0.59775,-1.39211 3.13673,-4.04569 5.64217,-5.89686 l 4.55534,-3.36575 2.39917,2.39916 c 1.66297,1.66297 3.03938,5.15063 4.48552,11.36576 2.64351,11.3611 4.78392,17.48778 6.31476,18.07522 0.66031,0.25338 6.57289,-1.63293 13.13905,-4.1918 8.21066,-3.19976 13.97642,-4.8088 18.46511,-5.15305 l 6.52663,-0.50055 2.72337,5.00371 c 6.47438,11.89558 3.38902,14.91154 -25.69987,25.12168 l -13.1379,4.61138 1.14473,5 c 10.40445,45.44524 12.86799,58.67732 14.48893,77.82258 1.2997,15.35103 0.12762,33.43399 -3.58923,55.37461 -1.36581,8.06244 -2.4833,14.9274 -2.4833,15.25546 0,0.32806 3.27117,1.11694 7.26927,1.75306 10.32472,1.64273 19.51563,4.86284 32.69865,11.4562 6.30736,3.15457 11.61448,5.58902 11.7936,5.4099 0.17913,-0.17912 2.50256,-6.59412 5.16319,-14.25555 6.24259,-17.97583 8.07661,-21.43844 15.46286,-29.19367 14.69255,-15.42653 37.57614,-25.22626 51.78882,-22.17818 9.53284,2.04443 18.1318,8.81083 21.58234,16.98286 2.03878,4.82848 1.92584,15.46887 -0.2348,22.12194 -4.43425,13.654 -15.65342,30.04511 -29.97008,43.78602 -11.66934,11.20005 -16.49241,13.3891 -30.7985,13.97853 -12.4057,0.51114 -12.39634,0.50051 -8.07705,9.16819 3.17639,6.3742 8.60453,12.06248 14.53021,15.22656 3.69321,1.97203 5.7553,2.29076 14.79149,2.28625 9.66889,-0.005 11.10926,-0.26772 18.19712,-3.3213 4.23341,-1.82384 10.60235,-5.19648 14.1532,-7.49476 28.11303,-18.19616 65.35088,-64.95292 79.13961,-99.36964 6.74732,-16.84134 7.56027,-14.93246 -6.71382,-15.7648 -20.2898,-1.18313 -34.44105,-4.50375 -49.29464,-11.56712 -6.23119,-2.96313 -15.84826,-8.70722 -19.31137,-11.5343 -0.26078,-0.21288 1.24871,-2.96202 3.44873,-6.281 0.12329,-0.18599 2.17727,0.80644 4.5644,2.20539 5.5493,3.25211 29.98809,9.27288 43.93365,10.82356 12.08317,1.34358 23.43164,0.33647 32.91566,-2.92108 4.79889,-1.64831 5.79577,-2.48012 8.15236,-6.80241 1.47669,-2.70845 4.80827,-11.2341 7.4035,-18.94588 2.59522,-7.71178 5.74562,-16.08693 7.00087,-18.61144 2.15789,-4.33983 8.41418,-10.90998 10.38882,-10.90998 2.10625,0 4.02191,4.67818 4.02191,9.82178 0,4.37268 -0.64465,6.43202 -3.45201,11.02749 -3.81416,6.24356 -7.9992,17.98676 -9.10309,25.54323 l -0.71473,4.89251 7.38492,-0.69259 c 12.71673,-1.19263 19.75383,-2.67986 41.36645,-8.74245 29.39314,-8.24512 36.92354,-9.13625 44.59129,-5.27683 4.60809,2.3194 5.39247,3.98695 3.94227,8.38111 -1.24563,3.7743 -1.49417,3.93777 -8.39936,5.52444 -3.91366,0.89927 -19.04074,4.32761 -33.61574,7.61852 -22.93689,5.17895 -41.95314,9.7926 -57.74131,14.00897 l -4.2413,1.13268 -2.91335,9.13057 c -5.66251,17.7466 -8.35407,32.09813 -8.86996,47.29505 -0.42094,12.40006 -0.21956,15.02466 1.61663,21.06991 5.4899,18.07431 22.14245,21.48526 43.77222,8.96588 l 7.12294,-4.12277 2.19807,-10.47559 c 2.87313,-13.69282 8.92099,-31.97436 14.41337,-43.56889 8.62482,-18.20717 18.28709,-29.59423 29.6248,-34.91305 5.4391,-2.55162 7.7719,-3.06287 14.09444,-3.08884 6.70745,-0.0276 8.13503,0.31402 12.44524,2.97779 11.04231,6.82432 13.71259,24.11397 6.36984,41.24389 -5.1289,11.96524 -19.12409,27.73562 -36.69414,41.34855 -24.69785,19.1354 -23.45026,17.91646 -22.75941,22.23675 1.94731,12.17784 12.57273,19.66189 27.9148,19.66189 10.61707,0 21.70828,-9.96329 30.89694,-27.75486 14.26917,-27.62873 23.26666,-55.84477 47.27218,-148.24514 15.38192,-59.207 19.24111,-71.61198 24.56476,-78.96107 3.36091,-4.63961 6.19147,-5.18112 10.27838,-1.96635 4.23083,3.32797 3.9502,5.17145 -5.84983,38.42742 -9.52777,32.33209 -15.01742,76.10845 -19.53829,155.80526 -2.31544,40.81808 -1.86567,57.61283 2.05861,76.8696 3.97191,19.49049 11.12423,31.21729 20.57398,33.7327 13.40329,3.56778 32.6066,-8.72856 47.32516,-30.30346 6.34797,-9.30504 6.78782,-8.49868 -7.67621,-14.0728 -29.75634,-11.46744 -41.53083,-19.96732 -50.60516,-36.5313 -3.80702,-6.9492 -6.61454,-16.9257 -6.63862,-23.59028 -0.0208,-5.75676 4.95553,-15.16264 11.46707,-21.67418 9.10676,-9.10676 21.91386,-14.69909 33.71893,-14.72367 24.36777,-0.0507 38.35712,13.89151 44.64502,44.49469 0.56577,2.75361 1.75679,11.75361 2.64672,20 0.88992,8.24639 2.04756,16.63283 2.57252,18.63652 0.92615,3.53499 1.19896,3.71158 9.19471,5.95154 14.28508,4.00189 45.73762,2.70101 47.18422,-1.95154 0.28098,-0.90369 1.22086,-8.16808 2.08862,-16.14308 3.48421,-32.02123 9.6666,-49.96823 24.22762,-70.33098 6.86215,-9.59632 24.68455,-27.67328 30.84029,-31.28079 12.79725,-7.49968 31.35174,-6.62148 40.2334,1.9043 6.28858,6.0366 8.63987,13.23964 13.75471,42.1368 4.17155,23.56793 6.35161,28.54364 16.78048,38.29933 8.24381,7.71168 16.51095,13.07487 30.63091,19.87136 31.85433,15.33275 50.00002,24.9548 50.00002,26.51335 0,5.15763 -27.28408,1.51995 -46.82718,-6.24329 -16.71162,-6.63847 -40.9916,-20.58904 -59.63364,-34.26376 -0.83117,-0.60969 -4.68527,1.97234 -12.12875,8.12559 -28.71651,23.73889 -44.55295,33.17665 -59.91045,35.70374 -25.43389,4.18518 -60.61132,6.86675 -78.5,5.98404 l -13.5,-0.66616 -6.62726,8.37324 c -13.40273,16.93371 -30.32217,32.12712 -42.63809,38.28839 -22.99238,11.50236 -42.98505,4.2313 -54.75913,-19.91516 -9.28038,-19.03235 -12.92797,-41.73224 -12.9562,-80.62973 l -0.0193,-26.62974 -2.20223,8.29587 c -10.09191,38.01649 -28.15017,63.93955 -49.85511,71.56822 -10.71592,3.76634 -26.73773,2.35663 -37.89238,-3.33405 -5.89129,-3.00551 -15.61187,-12.80196 -19.05028,-19.19895 -2.15852,-4.01584 -3.42074,-5.40445 -4.5,-4.95064 -7.61814,3.20328 -21.97651,7.4084 -28.29824,8.28768 -9.34324,1.29952 -14.53181,0.36519 -22.98133,-4.13835 -11.11547,-5.92449 -15.7123,-13.69814 -19.50793,-32.98969 -1.37641,-6.99567 -2.81462,-12.52652 -3.19604,-12.2908 -0.38141,0.23573 -4.70106,6.18445 -9.59923,13.21939 -29.59416,42.50428 -53.82247,64.15852 -79.11942,70.71362 -7.80911,2.02354 -21.79069,2.02023 -29.65347,-0.007 -8.95797,-2.30963 -17.07189,-7.00905 -22.66169,-13.12517 -6.0503,-6.61999 -12.68231,-19.69634 -16.38023,-32.29694 l -2.78983,-9.50629 -6.15629,-3.69774 c -12.95899,-7.78372 -34.67136,-16.29351 -44.56055,-17.46474 l -4.78628,-0.56686 -6.02131,10.87097 c -3.31175,5.97901 -8.54234,15.82094 -11.62357,21.87094 -15.12694,29.70184 -34.12001,51.82107 -58.16461,67.73821 -27.88608,18.46014 -60.554546,27.17202 -83.344255,22.22587 z m 24.419246,-14.01132 c 20.886719,-4.31427 44.069579,-18.90893 67.425009,-42.44708 21.05515,-21.21988 36.28887,-46.24246 38.65299,-63.49058 0.72817,-5.31262 0.12062,-5.60001 -13.23904,-6.26251 -19.52782,-0.96839 -42.44601,6.05243 -68.35574,20.94026 -28.379944,16.30723 -50.481075,36.86356 -59.788422,55.60939 -8.436117,16.9911 -2.321339,30.98223 15.659558,35.83039 6.239581,1.68237 10.833571,1.64031 19.645645,-0.17987 z M 732.44277,750.11218 c -1.30863,-34.07402 -13.80624,-55.46663 -31.25479,-53.49992 -6.41801,0.7234 -16.7519,6.08874 -20.77117,10.78434 -6.30916,7.37084 -7.22888,15.23875 -2.85991,24.46558 3.79388,8.01227 12.39939,15.8771 23.78898,21.74142 8.41232,4.33137 24.16113,9.78093 30.75628,10.64258 0.50325,0.0657 0.6508,-6.05708 0.34061,-14.134 z m 108.46989,9.6318 c 25.28418,-7.97424 41.71665,-21.50597 55.66632,-45.83984 5.75813,-10.04449 6.09781,-12.41829 4.07987,-28.51167 -1.33948,-10.6825 -4.03997,-16.94174 -9.46807,-21.94519 -10.02207,-9.23801 -21.76345,-5.15352 -34.63775,12.0495 -18.94632,25.31663 -34.60893,68.91161 -29.89256,83.20234 1.49466,4.52888 2.88264,4.63064 14.25219,1.04486 z M 325.83668,735.30754 c 14.63354,-7.43941 30.13707,-26.13982 35.04146,-42.26712 3.45594,-11.36427 0.8311,-17.76854 -8.10551,-19.77647 -14.40466,-3.23651 -33.47374,10.8374 -44.48434,32.8316 -4.50129,8.99155 -6.75555,17.10584 -6.38079,22.96787 0.29223,4.57114 0.52023,4.90887 4.80678,7.12011 5.49113,2.83264 12.45491,2.51363 19.1224,-0.87599 z m 219.7671,-14.2439 c 12.2091,-7.25242 27.98849,-24.80532 34.16569,-38.00571 8.46749,-18.0946 -1.04561,-28.95544 -14.94289,-17.05988 -13.19615,11.29542 -28.1123,41.07809 -28.1123,56.13108 0,4.01409 0.4238,3.96329 8.8895,-1.06549 z"
         id="path3041"
         style="fill:#6e6e6e" />
      <path
         d="m 67.714277,847.21981 c -13.148563,-2.17205 -24.856048,-10.8575 -29.164944,-21.63665 -3.188822,-7.97717 -3.236385,-24.18738 -0.09405,-32.05454 4.390522,-10.99214 10.404624,-19.45904 22.185567,-31.23374 16.649447,-16.64062 33.96133,-28.83216 58.25153,-41.02246 21.38542,-10.7325 30.93125,-13.56794 65.21933,-19.37242 11.49358,-1.9457 21.48909,-4.02867 22.21223,-4.62883 1.86225,-1.54553 5.2909,-11.0989 7.14522,-19.90899 2.21111,-10.50524 2.14155,-42.32273 -0.12898,-59 -1.92681,-14.15261 -7.67607,-43.24436 -10.47413,-53 -1.8586,-6.48018 -1.87463,-6.49901 -5.25803,-6.17667 -1.86656,0.17783 -7.21874,1.8983 -11.89374,3.82328 -15.77307,6.4947 -21.48132,8.31112 -26.1849,8.3323 -6.5649,0.0296 -9.3296,-1.28815 -12.38281,-5.90187 -2.50265,-3.78175 -2.58366,-4.27757 -1.46257,-8.95081 1.09445,-4.56218 1.55049,-5.1023 5.85856,-6.93863 2.56944,-1.09523 11.10796,-3.83044 18.97448,-6.07824 23.97804,-6.85153 25.92673,-8.8689 24.67638,-25.54616 -0.88277,-11.77461 0.13109,-14.95661 6.16997,-19.36432 3.69825,-2.69931 4.79258,-3.0772 6.00277,-2.07283 2.45606,2.03835 4.27841,6.40735 5.875,14.08507 2.17787,10.47297 4.42926,16.78888 5.9846,16.78888 0.74292,0 6.89425,-2.08014 13.66964,-4.62253 7.56189,-2.83752 14.64597,-4.81423 18.34521,-5.11896 l 6.02632,-0.49642 2.72368,5.00428 c 3.27387,6.01519 3.49055,10.46676 0.64781,13.30949 -2.80486,2.80486 -11.85026,6.74697 -27.21131,11.85905 -10.93494,3.6391 -12.70433,4.51652 -12.21526,6.05742 2.14158,6.74754 11.88925,53.04352 13.58216,64.50767 3.50925,23.76426 2.64334,49.48355 -2.62139,77.86047 -0.80209,4.32326 -1.45834,8.42402 -1.45834,9.1128 0,0.78759 2.86952,1.71524 7.73251,2.49972 10.25881,1.65492 22.65554,6.07295 34.16717,12.17671 7.26505,3.85211 9.58918,4.6849 10.2341,3.66712 0.45892,-0.72425 2.4666,-6.26682 4.4615,-12.31682 6.00609,-18.21482 9.30099,-24.19731 17.74387,-32.21721 8.65269,-8.21921 18.58645,-14.41403 28.82137,-17.97339 6.23045,-2.16674 8.57341,-2.47212 16.3553,-2.13177 7.62476,0.33348 9.82084,0.82962 13.67823,3.0902 5.49312,3.21919 9.42134,7.6546 12.08118,13.64103 2.91568,6.56227 2.07933,18.19619 -2.00004,27.82127 -4.83004,11.39623 -13.65157,23.76111 -25.21692,35.34581 -13.8735,13.89671 -17.62991,15.77914 -33.37868,16.72692 l -11.58405,0.69714 2.34929,5.77138 c 3.46308,8.5076 8.49964,14.08366 16.10119,17.82589 10.99691,5.41376 23.03448,4.15829 39.49819,-4.1195 29.97796,-15.07262 72.78991,-67.27558 88.46987,-107.87619 1.91726,-4.9644 3.48592,-9.71815 3.48592,-10.56388 0,-1.28799 -1.74572,-1.53835 -10.75,-1.54172 -18.72574,-0.007 -35.9262,-3.86433 -51.52157,-11.55408 -7.48761,-3.69197 -18.72107,-10.56629 -18.69745,-11.4419 0.007,-0.275 0.85551,-1.59548 1.88465,-2.9344 l 1.87117,-2.43441 5.90477,2.64991 c 3.24763,1.45745 11.32952,3.97458 17.95975,5.59362 24.10075,5.88519 42.20843,6.5187 55.87366,1.9548 l 6.97502,-2.32952 3.73937,-7.5 c 2.05665,-4.125 5.58317,-13.21093 7.83672,-20.19096 4.55391,-14.10509 8.26764,-20.8312 13.13653,-23.79215 2.84328,-1.7291 3.43708,-1.79576 4.70468,-0.52816 0.81401,0.81401 1.64003,4.06813 1.88209,7.41457 0.35825,4.95283 0.0637,6.48018 -1.73729,9.00949 -5.0098,7.03562 -11.00325,23.84357 -11.04732,30.98099 -0.0147,2.38792 0.005,2.39209 8.23522,1.7064 11.27758,-0.93963 19.15533,-2.67326 41.83001,-9.20538 26.78618,-7.71657 40.92698,-8.4645 46.36778,-2.45249 1.45132,1.60369 1.52261,2.42443 0.5055,5.81926 l -1.18413,3.95226 -18.63458,4.24633 c -53.53474,12.19917 -62.53237,14.31876 -72.88521,17.16974 l -11.25064,3.09821 -3.44017,10.86415 c -12.55841,39.65979 -11.90432,70.69463 1.67942,79.68393 3.14711,2.08265 5.55986,2.76002 10.90739,3.06218 8.2871,0.46827 14.35929,-1.27959 24.59135,-7.07851 6.44205,-3.65097 7.3045,-4.49438 7.85401,-7.6806 1.58115,-9.16791 6.85659,-28.24309 10.47536,-37.87728 9.10183,-24.23167 21.05345,-40.69714 34.47638,-47.49736 4.3653,-2.21151 14.83047,-3.90873 19.21108,-3.11562 12.39657,2.2444 19.24192,13.03318 17.95659,28.30092 -1.67234,19.86478 -14.13418,36.49999 -45.87577,61.23917 -9.38334,7.31332 -17.30949,13.94547 -17.61366,14.73812 -0.93317,2.43182 1.72222,10.43959 4.68497,14.12831 4.27203,5.31882 10.55454,8.08806 19.78437,8.72069 7.0403,0.48255 8.39681,0.27347 12.84288,-1.97953 9.57839,-4.85374 18.81901,-16.99406 26.64064,-35.00044 14.37092,-33.08371 19.54589,-50.44068 50.44223,-169.18437 12.07561,-46.4101 17.90129,-57.43917 26.68886,-50.52686 4.19507,3.29983 3.84562,5.45822 -6.70005,41.38337 -8.86144,30.18763 -14.44179,76.44434 -19.1926,159.09162 -3.22449,56.0949 2.09662,88.65286 16.46495,100.74302 5.28921,4.45057 9.92544,5.3399 17.75952,3.40665 8.13702,-2.00801 13.35515,-4.96789 20.95367,-11.88553 5.3224,-4.84548 20.40985,-23.99057 20.40985,-25.89891 0,-1.18297 -5.7703,-3.90555 -19.56665,-9.23203 -20.28422,-7.83131 -32.35551,-16.24776 -40.26559,-28.07431 -6.33317,-9.46888 -9.53507,-18.84396 -9.58303,-28.05889 -0.0447,-8.5953 2.17014,-13.29469 10.26658,-21.78296 10.38594,-10.88858 24.57824,-16.49907 38.80619,-15.34084 23.92264,1.94742 36.94849,18.62262 41.3251,52.90281 0.57728,4.52154 1.708,13.62019 2.51273,20.21922 0.99605,8.16801 1.94242,12.34869 2.96452,13.09607 0.82576,0.60381 4.9976,1.9546 9.27076,3.00177 9.4183,2.308 32.75721,2.46325 40.76179,0.27114 5.73191,-1.56973 4.91718,1.00117 8.00769,-25.26852 4.29624,-36.5186 15.93654,-59.63757 43.2789,-85.95688 12.01313,-11.56364 17.2921,-13.95895 30.72101,-13.93951 6.02284,0.009 9.26495,0.55766 13.11826,2.22112 11.0202,4.75736 14.59541,12.00515 19.43283,39.39487 5.2472,29.70997 6.63355,33.40222 16.33538,43.50566 8.01205,8.34372 18.06103,14.9667 34.61353,22.81272 7.425,3.51952 18.9,9.17832 25.5,12.57512 6.6,3.39681 14.36252,7.29832 17.25002,8.67003 3.4843,1.65522 5.25,3.10347 5.25,4.3061 0,1.59421 -0.9318,1.81117 -7.75,1.80453 -4.2625,-0.004 -10.61339,-0.47218 -14.11307,-1.04005 -20.62494,-3.34667 -51.05417,-17.54906 -76.0415,-35.49124 -4.94901,-3.55364 -9.23834,-6.46116 -9.53186,-6.46116 -0.29353,0 -7.41571,5.54636 -15.82708,12.32524 -26.02786,20.97632 -38.30753,28.48025 -50.79561,31.04045 -19.86084,4.07169 -53.12394,7.04057 -77.11809,6.88313 l -19.67718,-0.12911 -6.95326,8.69015 c -3.82429,4.77958 -11.39455,12.98775 -16.82281,18.24039 -15.57692,15.07298 -26.88742,21.84455 -40.33979,24.15138 -20.28384,3.47829 -37.05392,-11.38463 -45.36016,-40.20163 -5.46673,-18.96583 -8.30861,-48.60366 -7.33534,-76.5 l 0.59311,-17 -2.39494,9 c -6.87022,25.81783 -17.16218,46.08188 -30.06516,59.19586 -9.87769,10.03922 -19.24365,14.53406 -31.5065,15.12036 -4.76295,0.22772 -11.01021,-0.09 -13.8828,-0.70608 -12.46755,-2.67381 -24.6109,-11.64727 -31.09717,-22.97959 -2.44323,-4.26863 -3.92794,-5.91335 -4.98081,-5.51763 -17.35852,6.52419 -22.67853,7.7876 -33,7.83691 -9.32806,0.0446 -11.13039,-0.24538 -16.14796,-2.59779 -12.12493,-5.68459 -18.39976,-15.68771 -21.80882,-34.7669 -1.90592,-10.66668 -2.5692,-13.03245 -3.36491,-12.00181 -0.17692,0.22917 -3.41197,4.91667 -7.18898,10.41667 -17.38169,25.3108 -31.77974,42.38924 -45.29939,53.73246 -17.60494,14.77085 -30.83512,20.74504 -47.69628,21.53765 -29.2727,1.37605 -47.3025,-13.55986 -56.90702,-47.14184 -1.39553,-4.87945 -3.33593,-9.50696 -4.31199,-10.28336 -0.97606,-0.77639 -7.62465,-4.28405 -14.77465,-7.79479 -12.95013,-6.35869 -28.85689,-12.05453 -35.48674,-12.70699 -3.41511,-0.33608 -3.58372,-0.174 -8.20815,7.89036 -2.59678,4.52843 -8.16592,14.87843 -12.37588,23 -9.22423,17.7948 -15.64443,27.65569 -26.21658,40.26651 -29.63699,35.35197 -78.85392,57.69865 -114.21265,51.85763 z m 25.333387,-14.93526 c 31.190746,-7.93509 70.217096,-40.2278 91.581896,-75.78029 5.87794,-9.78129 10.97409,-22.41233 11.77669,-29.18909 l 0.56701,-4.78747 -3.87949,-1.07719 c -5.61431,-1.55887 -21.09173,-1.33171 -29.47924,0.43265 -42.63995,8.96959 -94.592782,45.09096 -108.934944,75.73946 -5.760651,12.31023 -4.946408,20.91687 2.680102,28.32899 8.232129,8.00072 20.544357,10.18556 35.687976,6.33294 z M 732.90949,759.61218 c 0.51693,-8.05607 -1.01476,-23.35426 -3.17888,-31.75 -3.89436,-15.10823 -10.77158,-26.25785 -18.44096,-29.89721 -13.17283,-6.25092 -34.91812,6.50163 -36.34124,21.31236 -1.30508,13.58219 11.63618,28.76251 31.71035,37.19678 6.37883,2.6801 22.32118,7.72665 24.75073,7.83484 0.72637,0.0324 1.31477,-1.81004 1.5,-4.69677 z m 118.49485,-3.56342 c 10.61385,-4.48095 17.7969,-9.25507 26.81799,-17.82422 7.54456,-7.16659 15.85873,-18.54607 20.88073,-28.57912 2.05588,-4.10728 2.60701,-6.65937 2.59141,-12 -0.053,-18.16567 -4.63609,-31.20652 -12.78284,-36.37304 -8.70697,-5.5218 -17.89093,-2.6541 -28.14383,8.78796 -20.35875,22.71996 -40.5792,76.71566 -33.70603,90.00691 l 1.60457,3.10291 7.46403,-1.9121 c 4.10522,-1.05166 10.9785,-3.39585 15.27397,-5.2093 z M 326.33901,735.05234 c 11.92865,-6.0447 24.0828,-19.22099 31.40875,-34.05014 6.4919,-13.14088 6.22209,-23.02455 -0.73011,-26.74526 -4.56931,-2.44542 -14.02041,-1.76936 -20.6415,1.47652 -16.24429,7.96351 -32.55837,31.80917 -35.03719,51.21252 -0.71004,5.55792 -0.0355,6.69467 5.87755,9.90554 4.14415,2.25031 12.72431,1.44303 19.1225,-1.79918 z m 221.37527,-15.22887 c 12.06625,-7.97278 28.3995,-26.87886 33.22728,-38.46129 3.84914,-9.23453 2.92835,-16.83392 -2.3718,-19.57474 -4.16571,-2.15417 -8.47082,-0.54346 -15.34871,5.74255 -13.14487,12.01367 -26.50677,39.26476 -26.50677,54.05954 0,3.58972 0.18295,3.85138 2.25,3.21812 1.2375,-0.37912 5.175,-2.622 8.75,-4.98418 z"
         id="path3039"
         style="fill:#4f4f4f" />
      <path
         d="m 67.031446,846.92864 c -16.108779,-3.68259 -25.133519,-11.20234 -29.309527,-24.4218 -3.325896,-10.52836 -2.407854,-21.66949 2.745582,-33.31969 9.367802,-21.17747 38.582693,-47.01341 74.256189,-65.66782 23.47136,-12.27366 34.44186,-15.66527 69.93954,-21.62229 11.79693,-1.97969 21.56936,-3.71984 21.71652,-3.86699 1.43004,-1.43004 5.60902,-13.21735 7.03515,-19.84347 2.47762,-11.51155 2.44445,-42.25299 -0.0651,-60.3244 -2.09751,-15.10433 -6.65041,-38.31253 -9.90692,-50.5 l -2.2712,-8.5 -3.97871,0.31405 c -2.18827,0.17272 -8.25369,2.14179 -13.47869,4.37571 -13.89139,5.93919 -19.78694,7.81024 -24.6095,7.81024 -5.7718,0 -8.80407,-1.54627 -11.95849,-6.09811 -2.53055,-3.65159 -2.58708,-4.01796 -1.35919,-8.80897 1.17112,-4.56946 1.67406,-5.16653 5.85418,-6.94988 2.51515,-1.07302 10.648,-3.61146 18.073,-5.64097 7.425,-2.02951 15.67289,-4.8635 18.32864,-6.29777 7.1124,-3.84113 8.07175,-6.37082 7.26438,-19.15528 -0.64705,-10.24576 0.33858,-17.04902 2.47001,-17.04902 0.47706,0 2.463,-1.40098 4.41321,-3.11328 2.98972,-2.62501 3.7897,-2.9109 5.10073,-1.82284 2.61441,2.16977 4.1194,6.01606 6.30444,16.11222 1.15177,5.32186 2.63915,10.8723 3.30529,12.33431 1.51226,3.31906 2.62396,3.1593 17.23863,-2.47737 12.05608,-4.64985 20.56392,-6.11677 23.12905,-3.98791 2.44927,2.03272 5.44562,8.53982 5.44562,11.82614 0,5.50806 -5.63088,8.80299 -28.67924,16.78174 -10.67855,3.69663 -13.26614,4.95093 -12.86699,6.23708 1.29754,4.18107 10.75751,47.91633 12.77401,59.05673 1.98145,10.94679 2.26159,15.68837 2.18912,37.05318 -0.0743,21.91903 -0.36404,26.07261 -2.75,39.42809 -1.46679,8.21044 -2.6669,15.42899 -2.6669,16.04121 0,0.61222 4.06633,1.88184 9.0363,2.82137 10.52352,1.9894 24.24919,7.0708 34.73614,12.85972 4.06726,2.24518 7.74133,3.69232 8.16459,3.21588 0.42327,-0.47645 2.88924,-7.16627 5.47995,-14.86627 5.20344,-15.46543 7.88292,-20.70005 13.98471,-27.32046 15.83221,-17.17788 40.64948,-26.83978 56.63668,-22.0499 6.08502,1.82312 13.03195,7.75284 16.25445,13.87439 2.68476,5.10004 2.86107,6.1083 2.44735,13.99597 -0.47687,9.09178 -2.89105,16.01389 -9.37619,26.88404 -7.83601,13.13442 -24.50597,31.19252 -33.82161,36.63798 -4.61127,2.69552 -13.97139,4.4594 -23.72256,4.47043 l -6.6802,0.008 0.85215,2.97128 c 1.60429,5.59383 6.44022,13.23899 10.80402,17.08016 11.02387,9.7036 28.80592,9.64659 47.20422,-0.15133 8.92264,-4.75171 18.74145,-12.6106 31.08771,-24.88234 24.66676,-24.51788 47.27709,-57.88569 56.88973,-83.95659 1.66241,-4.50914 3.02256,-8.84237 3.02256,-9.62985 0,-1.15455 -2.1045,-1.43178 -10.86901,-1.43178 -22.90688,0 -42.77143,-5.73906 -63.31027,-18.29094 l -6.67928,-4.0819 1.45496,-2.81358 c 0.80023,-1.54747 1.83902,-2.81358 2.30844,-2.81358 0.46941,0 3.27035,1.09769 6.22432,2.43931 6.8306,3.10229 26.69402,8.08767 38.37084,9.63043 12.20768,1.6129 26.22257,0.72343 35,-2.22131 6.8347,-2.29297 7.07515,-2.4905 10.18231,-8.36462 1.75027,-3.30891 5.47942,-12.75536 8.287,-20.99213 5.5033,-16.14533 7.30668,-19.48518 12.83212,-23.76501 3.05914,-2.36951 3.78317,-2.57064 4.97244,-1.38137 0.76558,0.76558 1.63855,4.11139 1.93994,7.43514 0.45416,5.0086 0.20512,6.52907 -1.45467,8.88137 -5.3453,7.57548 -11.25914,23.93468 -11.25914,31.14568 l 0,2.48756 8.60225,-0.66122 c 10.78745,-0.82919 21.06956,-3.08419 43.89775,-9.62735 24.86092,-7.1258 36.44491,-7.84395 42.92016,-2.66083 2.90414,2.32462 2.91168,2.35868 1.37455,6.21255 -1.82742,4.58167 1.67991,3.47206 -42.79471,13.53885 -34.31358,7.76685 -42.77911,9.82282 -53.69293,13.04004 -8.38636,2.47218 -8.24974,2.25436 -13.31257,21.22528 -9.87443,37.00046 -8.55789,62.00999 3.75839,71.39594 3.34754,2.55108 4.26871,2.74169 13.2502,2.74169 9.36445,0 9.90392,-0.12668 18.07473,-4.24447 4.6322,-2.33446 9.2368,-4.8789 10.23245,-5.65431 1.19892,-0.93373 2.48764,-4.72565 3.81606,-11.22838 3.81711,-18.68503 11.94895,-40.83875 20.06498,-54.66336 5.29787,-9.02425 17.0323,-21.03616 23.2272,-23.77646 14.91013,-6.59546 28.67097,-3.27113 34.828,8.41371 1.79054,3.3981 2.1832,5.7897 2.15954,13.15327 -0.0701,21.80898 -12.50773,39.13802 -47.40605,66.04958 -17.15957,13.23246 -17.61734,13.92697 -14.522,22.03199 3.37509,8.83755 13.33646,14.41843 25.73562,14.41843 7.49352,0 11.50747,-1.72513 17.89305,-7.69013 9.78437,-9.13994 16.36214,-21.08986 27.25472,-49.51403 9.07501,-23.68119 14.58179,-42.85326 37.13753,-129.29584 5.30999,-20.35 10.79556,-40.825 12.19015,-45.5 2.81219,-9.42712 8.48413,-22.42892 10.99464,-25.203 2.30472,-2.54669 5.97732,-2.22688 8.98676,0.78256 3.28818,3.28818 3.02181,5.48314 -3.26693,26.92044 -7.72843,26.34495 -9.20973,32.6432 -11.80827,50.20698 -9.30775,62.91195 -14.63865,154.43056 -10.67671,183.29302 1.52916,11.13983 5.12253,24.17418 8.50422,30.84761 2.98287,5.88641 10.23813,12.69937 14.52696,13.64135 8.84606,1.94292 21.6957,-3.35981 32.23603,-13.30302 6.30093,-5.94397 19.81423,-23.213 19.81423,-25.32116 0,-1.22626 -6.22644,-4.18269 -20.63223,-9.79658 -13.94763,-5.43535 -26.24243,-12.80877 -33.07336,-19.83471 -9.29095,-9.5562 -15.48963,-23.73997 -15.65104,-35.81259 -0.0855,-6.39245 0.24248,-7.63923 3.38099,-12.85382 15.99846,-26.58117 53.3128,-32.71695 71.93087,-11.82795 9.07724,10.18443 13.38465,24.25728 16.59443,54.21607 0.91073,8.50036 2.04174,16.47009 2.51334,17.71051 1.44048,3.78875 16.77696,7.34693 31.437,7.29361 8.31272,-0.0302 23.19997,-2.24226 24.56818,-3.65048 0.43222,-0.44486 1.52011,-7.33384 2.41752,-15.30884 3.90003,-34.65821 10.52271,-53.58915 25.89626,-74.02448 7.03529,-9.35168 25.74469,-27.95542 30.68175,-30.50847 5.97908,-3.0919 16.31859,-4.60411 23.56494,-3.4465 16.93744,2.70577 21.59443,9.49645 26.92981,39.26823 4.0215,22.44028 5.41443,28.14648 8.42444,34.51113 5.55454,11.74508 21.06096,23.82662 44.57536,34.73009 7.0812,3.2835 17.38995,8.35231 22.90832,11.26403 5.51838,2.91171 13.06854,6.73671 16.77814,8.5 4.5273,2.15192 6.7465,3.78133 6.75,4.95597 0.01,1.52203 -1.0424,1.75 -8.0369,1.75 -24.31386,0 -58.49081,-14.04498 -90.74092,-37.28989 l -8.80003,-6.3428 -8.95843,7.43924 c -13.94134,11.57712 -32.81106,25.4676 -40.74549,29.9938 -3.96712,2.26305 -9.86869,4.80191 -13.1146,5.64192 -6.83853,1.76974 -29.37141,4.89877 -48.09835,6.67919 -12.62847,1.20062 -46.5162,1.57182 -50.1815,0.54967 -1.37033,-0.38214 -3.54364,1.70693 -8.8185,8.47672 -9.01023,11.56378 -25.03467,27.11833 -34.13911,33.13804 -19.98818,13.21586 -37.48964,13.58323 -51.40049,1.07894 -9.20399,-8.27335 -15.86186,-22.49107 -19.83858,-42.36483 -3.55845,-17.78342 -4.48638,-29.49164 -4.48713,-56.6168 l -7.2e-4,-26.1168 -2.74497,10.6595 c -6.58564,25.57382 -19.412,49.58554 -32.56709,60.96756 -2.65205,2.29459 -8.07145,5.79429 -12.04311,7.77711 -6.32928,3.15983 -8.37461,3.66544 -16.55963,4.09357 -7.01933,0.36716 -10.81366,0.0626 -15.2788,-1.22654 -13.34519,-3.85281 -24.31774,-12.44187 -29.85558,-23.37027 -1.44016,-2.84203 -2.8052,-5.16733 -3.03342,-5.16733 -0.22821,0 -3.93313,1.28518 -8.23315,2.85595 -19.40372,7.08806 -32.09315,7.94067 -42.48188,2.85436 -11.75624,-5.75584 -17.67619,-14.75444 -20.95997,-31.86017 -2.87011,-14.95083 -2.84627,-14.85399 -3.64542,-14.80883 -0.40202,0.0227 -4.33095,5.29235 -8.73095,11.71028 -29.84471,43.53214 -54.7586,65.87138 -81.12119,72.73796 -12.20692,3.1795 -31.03942,0.82068 -41.29264,-5.172 -11.30718,-6.60869 -19.85185,-19.69439 -26.03953,-39.87813 l -3.08425,-10.06059 -6.80453,-4.07572 c -6.9344,-4.1535 -16.29122,-8.51899 -26.15786,-12.20413 -7.44726,-2.78151 -21.03116,-6.19776 -22.07608,-5.55196 -1.16301,0.71878 -13.5546,22.73442 -19.7243,35.04338 -22.31951,44.52892 -60.04621,75.69308 -104.69962,86.48717 -10.847206,2.6221 -26.284528,3.2945 -34.182834,1.48889 z m 26.272868,-14.57183 c 42.336916,-10.73343 96.839126,-66.77254 103.787746,-106.71444 0.53274,-3.06229 0.364,-3.27263 -3.44891,-4.29934 -2.20498,-0.59374 -8.46044,-1.07425 -13.90103,-1.06779 -15.7827,0.0187 -31.33241,4.33364 -52.52784,14.57601 -26.61462,12.8611 -51.267376,31.84494 -64.579747,49.72957 -7.556547,10.15192 -10.868105,17.33548 -11.54935,25.0533 -0.467786,5.29954 -0.19515,6.88722 1.828703,10.6494 6.586718,12.24415 21.790577,16.78881 40.390428,12.07329 z M 733.14578,759.97042 c 1.49761,-9.9868 -2.64424,-34.24872 -7.86016,-46.04284 -2.81711,-6.36998 -9.26302,-13.71668 -14.01216,-15.9703 -7.56695,-3.59075 -19.7383,-0.71051 -28.09976,6.64954 -20.89935,18.39634 -1.54539,46.59408 39.55108,57.62393 4.11923,1.10556 8.00091,2.0374 8.62596,2.07077 0.62505,0.0334 1.43282,-1.91563 1.79504,-4.3311 z m 115.15167,-2.51433 c 21.39043,-8.30593 39.36479,-25.0897 50.42495,-47.08488 3.26103,-6.48515 3.26344,-6.5013 2.69253,-18 -0.71265,-14.35366 -3.18377,-22.20483 -8.8153,-28.00773 -8.61258,-8.87468 -17.03688,-8.19917 -28.50938,2.28605 -20.9573,19.15379 -44.50853,78.95291 -36.89398,93.67782 l 1.48199,2.86586 6.06721,-1.41539 c 3.33697,-0.77846 9.43536,-2.72324 13.55198,-4.32173 z M 326.82992,734.6804 c 17.07287,-8.5124 35.89572,-34.76146 35.88062,-50.03667 -0.008,-8.51017 -6.71868,-13.17917 -17.16831,-11.94572 -17.97352,2.12155 -39.67244,27.88008 -43.89049,52.10187 -1.05314,6.04759 -0.98871,6.8511 0.70144,8.74742 5.2801,5.92421 14.05294,6.33032 24.47674,1.1331 z m 220.09556,-14.25343 c 12.80521,-8.56465 28.5453,-26.47808 33.89781,-38.57832 6.12114,-13.83786 0.54762,-24.79194 -10.15803,-19.96437 -7.7802,3.50839 -20.45513,19.49133 -27.12809,34.20824 -5.60105,12.35285 -8.72591,29.26966 -5.40667,29.26966 0.77893,0 4.73666,-2.22084 8.79498,-4.93521 z"
         id="path3037"
         style="fill:#303030" />
      <path
         d="m 70.534457,847.25693 c -20.148448,-2.62511 -32.787774,-15.03315 -34.526525,-33.89475 -2.590253,-28.09849 26.683994,-61.71997 77.706348,-89.24577 21.71266,-11.71366 35.87994,-16.17348 68.86061,-21.67714 12.84833,-2.14406 23.79722,-4.33492 24.33087,-4.86857 0.53365,-0.53365 2.08288,-4.03547 3.44273,-7.78182 8.78599,-24.20514 6.67886,-66.92015 -5.85931,-118.77794 l -3.10718,-12.85124 -4.08386,0.65165 c -2.24612,0.3584 -7.90886,2.26649 -12.58386,4.24019 -24.7409,10.44516 -30.29962,10.78093 -37.17749,2.24569 -2.78539,-3.45659 -2.8365,-3.72187 -1.68119,-8.72693 l 1.19152,-5.16197 6.58358,-2.47928 c 3.62097,-1.3636 11.75858,-3.87089 18.08358,-5.57175 12.9082,-3.47116 20.80083,-7.27946 22.78717,-10.99512 0.98322,-1.83921 1.20131,-5.40747 0.82514,-13.5 -0.34627,-7.44911 -0.12412,-11.84357 0.68818,-13.61321 1.62139,-3.53232 8.24342,-9.12245 10.32437,-8.71556 2.51218,0.49121 5.04062,6.23685 7.26822,16.51632 1.09503,5.05315 2.70006,10.55877 3.56672,12.23471 l 1.57575,3.04717 6.73223,-2.60359 c 12.4728,-4.82369 24.20952,-8.36584 27.71973,-8.36584 2.99631,0 3.85252,0.57839 6.08023,4.10731 3.75792,5.95292 4.25375,10.38936 1.48994,13.33129 -2.80043,2.98092 -11.19186,6.76261 -26.83023,12.09134 -6.74991,2.30001 -12.48217,4.39145 -12.73837,4.64764 -0.2562,0.2562 1.80667,10.33355 4.58414,22.39412 7.81287,33.9257 10.04886,48.30062 10.64387,68.4283 0.54478,18.42803 -0.83049,34.37024 -4.65834,54 -1.01889,5.225 -1.76753,9.5939 -1.66364,9.70866 0.10388,0.11476 3.46597,0.71711 7.47131,1.33856 10.19756,1.58221 22.45746,5.93252 34.62206,12.28531 8.81791,4.60504 10.48676,5.17957 11.02857,3.7968 0.35112,-0.89613 2.58561,-7.29728 4.96552,-14.22478 5.83651,-16.98905 8.67957,-22.25188 15.94656,-29.51887 7.38106,-7.38106 15.88053,-13.04053 26.35081,-17.54599 7.02534,-3.02307 8.61995,-3.32281 17.72006,-3.33085 11.38008,-0.0101 15.07304,1.36652 21.84574,8.14318 5.31963,5.32273 6.88006,8.77158 7.42694,16.41497 0.58297,8.14776 -1.4117,15.60582 -6.92907,25.90775 -10.19114,19.02871 -30.74673,40.63378 -41.7128,43.84249 -1.99695,0.58432 -8.47892,1.3766 -14.40438,1.76063 -10.35353,0.67101 -10.74899,0.78058 -10.14302,2.81019 4.09107,13.70256 15.02534,23.55452 27.91659,25.15334 6.58513,0.81672 17.74311,-1.57712 26.83861,-5.75797 23.33808,-10.72761 58.02922,-47.45385 78.85325,-83.47906 5.80612,-10.04449 14.74839,-30.21765 15.53875,-35.05436 l 0.53107,-3.25 -9.88084,-0.0198 c -16.51434,-0.0331 -32.78416,-3.1761 -46.93398,-9.06669 -8.70674,-3.62463 -23.45843,-12.58011 -23.41506,-14.21487 0.0175,-0.65924 0.68586,-2.06307 1.48527,-3.11961 1.42133,-1.87851 1.56982,-1.86256 6.71819,0.72159 6.06674,3.04511 26.15784,8.14492 38.62212,9.8036 12.19034,1.62223 28.04825,0.69908 36.41774,-2.12002 l 6.77512,-2.28207 3.49476,-7.3645 c 1.92212,-4.05048 5.5739,-13.67995 8.11507,-21.39883 3.99313,-12.12927 5.23097,-14.71353 9.11896,-19.03792 6.25585,-6.95801 8.41465,-6.55256 9.60429,1.80382 0.84374,5.92665 0.74612,6.41956 -2.17855,11 -5.17296,8.10157 -10.14931,22.5314 -10.18915,29.54531 -0.0153,2.70081 0.0934,2.75 6.0773,2.75 8.23066,0 21.57972,-2.84625 44.90708,-9.57498 24.15883,-6.96856 34.68408,-8.03402 42,-4.25158 4.71816,2.43935 5.15062,3.67 3.14417,8.94737 -0.88398,2.32503 -2.69176,2.87419 -28.79368,8.74688 -35.90379,8.07803 -67.78211,15.86799 -71.79233,17.54356 -2.89654,1.21025 -3.43507,2.22121 -6.50107,12.20416 -5.8252,18.96696 -8.19382,32.352 -8.38521,47.38459 -0.13743,10.79387 0.20006,14.63259 1.68359,19.15011 2.10156,6.39947 6.41179,12.16106 10.7923,14.42631 4.53692,2.34613 16.19763,2.01458 23.35709,-0.66412 7.02198,-2.62726 17.50051,-8.61615 17.93023,-10.24783 0.16867,-0.64046 1.2996,-5.88947 2.51317,-11.66447 6.03505,-28.71892 19.28219,-56.82917 32.2944,-68.52826 7.97132,-7.16691 13.80512,-9.73302 23.32058,-10.25804 6.75792,-0.37288 8.72067,-0.10951 12.12421,1.62685 8.28441,4.22639 11.80297,11.16565 11.74305,23.15945 -0.10093,20.19874 -13.62816,39.42875 -43.9305,62.45063 -21.20055,16.10689 -21.79803,16.991 -17.60414,26.04937 3.39543,7.33378 9.64475,11.51642 20.1967,13.51755 17.92914,3.4002 31.32696,-10.07639 46.24565,-46.51755 11.94516,-29.17786 16.81422,-45.89265 46.17146,-158.5 6.85581,-26.29722 9.84862,-35.77915 14.14017,-44.79938 4.08135,-8.57842 6.4586,-10.23015 11.19706,-7.77979 5.64527,2.91928 5.47398,4.51359 -3.87623,36.07917 -3.25837,11 -6.84706,25.4 -7.97488,32 -4.38221,25.64479 -9.04941,69.46594 -10.97009,103 -0.59852,10.45 -1.52416,25.36591 -2.05696,33.14648 -3.7587,54.88827 3.89595,92.30051 20.53276,100.35425 6.41543,3.10565 13.41415,2.33356 23.34726,-2.57565 9.03598,-4.46582 17.09388,-12.21391 26.42965,-25.41352 l 6.63745,-9.38451 -2.7135,-1.65018 c -1.49243,-0.9076 -6.536,-3.12512 -11.20794,-4.9278 -29.94837,-11.55574 -42.39491,-20.96237 -51.17091,-38.67309 -3.77219,-7.61258 -4.25747,-9.41983 -4.63181,-17.24954 -0.37436,-7.83003 -0.15536,-9.26346 2.09092,-13.68624 3.53442,-6.95905 9.58639,-13.47362 16.92423,-18.21787 8.50541,-5.49914 16.21542,-7.665 26.79315,-7.5266 19.73638,0.25824 32.01135,9.99391 38.83881,30.80427 3.36231,10.24846 4.4496,16.19289 6.6169,36.17595 0.84562,7.79677 1.96861,15.30988 2.49553,16.69581 2.31816,6.09722 29.84636,9.70058 47.93639,6.27474 4.61319,-0.87363 8.54669,-1.74749 8.74111,-1.94191 0.19441,-0.19441 1.04506,-6.61998 1.89032,-14.27903 2.07492,-18.8012 3.18433,-25.57436 5.63872,-34.42556 5.8424,-21.0693 17.05443,-39.35044 35.28174,-57.52667 14.61425,-14.57329 18.25169,-16.60992 30.83379,-17.26407 17.93061,-0.93222 26.41011,4.665 31.31737,20.67222 0.77874,2.54019 2.79085,12.41925 4.47137,21.95347 5.81215,32.97445 8.9176,38.77305 28.06774,52.40895 4.19638,2.98804 13.1834,8.09304 19.97115,11.34445 27.73909,13.28733 50.41228,25.27087 50.72238,26.80848 0.2737,1.35691 -0.8265,1.60317 -7.162,1.60317 -24.4987,0 -59.24478,-14.20824 -91.16132,-37.27734 -7.5729,-5.47365 -9.23785,-6.30166 -10.5,-5.22183 -21.17775,18.11856 -48.58273,37.44947 -57.56869,40.60778 -16.03818,5.63696 -80.74593,11.10071 -99.65378,8.41449 l -4.27753,-0.60771 -6,7.72591 c -14.42765,18.57779 -31.15661,33.43979 -45,39.97799 -22.04549,10.41204 -41.1356,3.24476 -52.32196,-19.644 -7.93284,-16.23164 -11.7238,-34.94478 -13.06156,-64.47529 -0.42357,-9.35 -0.51055,-23.61659 -0.1933,-31.70354 0.31725,-8.08695 0.31255,-14.38695 -0.0104,-14 -0.32299,0.38695 -1.76235,5.29077 -3.19858,10.89739 -7.56532,29.53283 -21.57371,53.65073 -37.66709,64.85048 -7.79288,5.42325 -13.51335,7.44623 -23.04707,8.15036 -18.40854,1.35959 -35.20838,-7.37126 -44.38856,-23.06867 -2.13132,-3.64432 -4.18045,-6.62603 -4.55367,-6.62603 -0.37322,0 -3.49443,1.10352 -6.93602,2.45227 -24.80431,9.72074 -41.9975,8.12326 -54.00792,-5.01805 -5.78301,-6.32754 -8.41105,-12.92982 -11.06377,-27.7949 -1.06597,-5.97337 -2.12824,-11.05079 -2.36061,-11.28316 -0.23237,-0.23237 -4.59703,5.55493 -9.69926,12.86067 -13.61827,19.49964 -21.23339,29.04414 -32.45933,40.68328 -25.28164,26.21218 -48.74755,36.48761 -73.09724,32.00836 -9.16169,-1.68534 -19.14529,-6.8303 -25.2613,-13.0182 -6.44257,-6.51829 -13.84847,-20.87985 -17.31349,-33.5744 -2.33707,-8.56213 -2.40916,-8.67427 -7.79954,-12.13164 -10.89079,-6.98532 -35.72676,-16.92539 -46.59196,-18.64744 l -4.03263,-0.63914 -6.63045,11.80118 c -3.64675,6.49064 -8.73915,16.04345 -11.31645,21.22846 -19.61278,39.45702 -49.08719,67.77736 -86.05227,82.68288 -16.9299,6.82669 -36.819014,10.08208 -50.615393,8.28458 z m 21.67982,-14.35077 c 20.966873,-4.98471 45.307893,-20.98032 68.000003,-44.68593 18.74464,-19.58185 31.23847,-39.53414 35.62993,-56.89999 2.4214,-9.57536 2.58251,-9.32729 -7.10387,-10.93829 -28.49515,-4.73921 -78.78137,17.13652 -112.108506,48.76991 -24.696846,23.44171 -31.933862,43.01066 -20.656379,55.855 3.201866,3.64673 9.178241,7.17955 14.238822,8.41701 5.051003,1.23512 15.679205,0.98501 22,-0.51771 z M 733.29857,760.76458 c 1.40699,-7.49993 -1.0883,-26.55638 -5.16971,-39.48081 -6.95356,-22.01957 -20.16299,-29.97834 -36.71336,-22.12004 -20.0683,9.52865 -22.39122,28.11885 -5.54196,44.35188 7.19185,6.92883 21.46867,14.42133 34.84074,18.28449 11.43509,3.30357 11.77553,3.27556 12.58429,-1.03552 z m 103.41571,0.59206 c 26.00606,-6.49908 46.40907,-22.54521 60.43144,-47.52685 l 4.83308,-8.61039 -0.53758,-12.17861 c -0.60562,-13.72023 -2.30852,-20.42046 -6.74733,-26.54805 -4.19524,-5.79138 -8.36375,-8.12226 -14.53383,-8.12682 -6.1712,-0.005 -11.57234,3.15007 -18.99333,11.09342 -22.31767,23.88859 -42.69792,80.79765 -33.18888,92.67542 0.56034,0.69992 1.74276,1.0642 2.62761,0.80952 0.88485,-0.25468 3.63382,-0.96912 6.10882,-1.58764 z M 326.8199,735.09894 c 16.08588,-7.87009 34.50589,-32.77982 35.56852,-48.1 0.74116,-10.68535 -4.00047,-15.13235 -15.27597,-14.32679 -14.22891,1.01656 -29.44036,13.80889 -38.87137,32.68955 -6.00693,12.02571 -8.91502,24.61575 -6.39171,27.67162 5.04923,6.11489 15.00997,6.93886 24.97053,2.06562 z m 215.84111,-11.70958 c 5.75152,-2.93421 17.87654,-13.04167 23.50048,-19.59009 16.15691,-18.81282 21.55243,-34.73983 13.97628,-41.25656 -2.16201,-1.85969 -3.52254,-2.26386 -6.17282,-1.83378 -14.19652,2.30378 -37.1634,39.56015 -37.23589,60.40325 -0.0168,4.81899 0.53465,5.03067 5.93195,2.27718 z"
         id="path3035"
         style="fill:#000000" />
    </g>
  </g>
</svg>
